<?xml version="1.0" encoding="UTF-8"?>
<svg id="Layer_1" data-name="Layer 1" xmlns="http://www.w3.org/2000/svg" viewBox="0 0 1159.07 1159.07">
  <defs>
    <style>
      .cls-1 {
        fill: none;
      }

      .cls-2 {
        fill: #d5ad36;
      }

      .cls-3 {
        fill: #00296b;
      }
    </style>
  </defs>
  <circle class="cls-2" cx="579.54" cy="579.54" r="579.54"/>
  <path class="cls-1" d="M910.75,291.36c-53.04,134.8-350.62,129.73-473.63,147.68-140.32,20.47-346.73,92.45-389.09,245.55-4.9,17.7-7.18,34.23-8.04,50.63,13.12,45.48,31.83,88.59,55.34,128.53-1.82-26.97,3.69-56.67,15.67-93.32,44.1-134.77,177.14-195.18,305.74-222.18,211.54-44.41,567.82-47.6,594.47-328.1-26.78-32.15-57.07-61.27-90.3-86.75,10.97,46.27,3.52,123.18-10.16,157.95Z"/>
  <path class="cls-1" d="M770.73,143.72c-37.13,124.57-222.71,148.24-323.34,187.43-44.45,17.31-12.19,18.15,14.24,19.87,101.82,6.64,286.3-15.2,365.66-83.07,47.32-40.47,53.11-77.8,50.68-138.88-.16-3.92-2.57-17.34-4.25-28.15-30.68-18.91-63.32-34.95-97.54-47.74,3.45,26.12-.64,74.42-5.45,90.54Z"/>
  <path class="cls-1" d="M458.94,744.83c52.5-26.17,319.68-106.08,333.76-142.68,2.1-5.46,1.88-8.95.23-11.09-4.24-5.5-17.86-2.26-25.83-1.18-49.3,6.63-108.44,26.72-159.36,36.94-98.09,19.69-241.16,28.42-320.55,91.11-93.23,73.61-99.27,201.3-54,303.36,40.71,31.95,85.95,58.4,134.6,78.22-13.79-30.75-30.36-74.72-32.46-84.73-25.19-120.16,13.36-214.97,123.62-269.94Z"/>
  <path class="cls-3" d="M416.74,548.26c-128.6,27-261.64,87.41-305.74,222.18-11.99,36.64-17.5,66.35-15.67,93.32,35.77,60.76,82.65,114.2,137.85,157.52-45.27-102.06-39.23-229.75,54-303.36,79.39-62.69,222.46-71.42,320.55-91.11,50.92-10.22,110.06-30.3,159.36-36.94,7.97-1.07,21.6-4.32,25.83,1.18,1.65,2.15,1.88,5.63-.23,11.09-14.08,36.61-281.27,116.51-333.76,142.68-110.26,54.97-148.81,149.78-123.62,269.94,2.1,10,18.67,53.98,32.46,84.73,65.35,26.63,136.85,41.31,211.78,41.31,310.12,0,561.52-251.4,561.52-561.52,0-136.6-48.78-261.79-129.86-359.14-26.65,280.5-382.93,283.69-594.47,328.1Z"/>
  <path class="cls-3" d="M437.12,439.04c76.88-11.22,221.95-13.44,332.89-46.44,66.56-19.8,120.84-50.68,140.73-101.23,13.68-34.78,21.13-111.68,10.16-157.95-15.14-11.61-30.89-22.45-47.19-32.49,1.68,10.82,4.09,24.24,4.25,28.15,2.44,61.08-3.36,98.41-50.68,138.88-79.36,67.87-263.84,89.71-365.66,83.07-26.43-1.72-58.69-2.56-14.24-19.87,100.63-39.19,286.21-62.85,323.34-187.43,4.81-16.13,8.9-64.42,5.45-90.54-61.19-22.88-127.44-35.4-196.62-35.4C269.44,17.78,18.04,269.18,18.04,579.29c0,54.11,7.66,106.42,21.94,155.93.86-16.4,3.14-32.93,8.04-50.63,42.36-153.1,248.78-225.08,389.09-245.55Z"/>
</svg>